<?xml version="1.0" encoding="utf-8"?>
<!-- Generator: Adobe Illustrator 16.0.0, SVG Export Plug-In . SVG Version: 6.00 Build 0)  -->
<!DOCTYPE svg PUBLIC "-//W3C//DTD SVG 1.1//EN" "http://www.w3.org/Graphics/SVG/1.1/DTD/svg11.dtd">
<svg version="1.1" id="Capa_1" xmlns="http://www.w3.org/2000/svg" xmlns:xlink="http://www.w3.org/1999/xlink" x="0px" y="0px"
	 width="108.332px" height="103px" viewBox="137.665 332.005 108.332 103" enable-background="new 137.665 332.005 108.332 103"
	 xml:space="preserve">
<g>
	<g>
		<g>
			<path fill="#3EB5E5" d="M217.68,340.777h-53.125c-8.803,0-15.938,7.135-15.938,15.938v53.125c0,8.803,7.135,15.938,15.938,15.938
				h53.125c8.803,0,15.938-7.135,15.938-15.938v-53.125C233.617,347.912,226.482,340.777,217.68,340.777z M212.261,373.736
				l0.031,1.355c0,13.833-10.523,29.771-29.771,29.771c-5.908,0-11.406-1.731-16.039-4.702c0.818,0.096,1.652,0.148,2.497,0.148
				c4.903,0,9.413-1.673,12.994-4.478c-4.579-0.085-8.441-3.112-9.775-7.268c0.644,0.116,1.292,0.181,1.972,0.181
				c0.956,0,1.881-0.122,2.757-0.361c-4.786-0.967-8.394-5.189-8.394-10.258v-0.133c1.414,0.786,3.022,1.254,4.738,1.313
				c-2.805-1.875-4.652-5.079-4.652-8.708c0-1.917,0.515-3.713,1.412-5.259c5.158,6.332,12.872,10.497,21.568,10.933
				c-0.18-0.765-0.271-1.567-0.271-2.385c0-5.774,4.686-10.46,10.466-10.46c3.006,0,5.727,1.27,7.639,3.304
				c2.381-0.473,4.622-1.345,6.646-2.54c-0.781,2.444-2.439,4.495-4.602,5.791c2.11-0.25,4.135-0.818,6.009-1.646
				C216.086,370.427,214.307,372.27,212.261,373.736z"/>
		</g>
	</g>
</g>
</svg>
