<?xml version="1.0" encoding="utf-8"?>
<!-- Generator: Adobe Illustrator 16.0.0, SVG Export Plug-In . SVG Version: 6.00 Build 0)  -->
<!DOCTYPE svg PUBLIC "-//W3C//DTD SVG 1.1//EN" "http://www.w3.org/Graphics/SVG/1.1/DTD/svg11.dtd">
<svg version="1.1" id="Capa_1" xmlns="http://www.w3.org/2000/svg" xmlns:xlink="http://www.w3.org/1999/xlink" x="0px" y="0px"
	 width="108.332px" height="103px" viewBox="137.665 332.005 108.332 103" enable-background="new 137.665 332.005 108.332 103"
	 xml:space="preserve">
<g>
	<path id="Facebook__x28_alt_x29__1_" fill="#06587C" d="M233.617,354.945c0-7.444-6.721-14.168-14.166-14.168h-56.667
		c-7.445,0-14.167,6.724-14.167,14.168v56.664c0,7.445,6.722,14.168,14.168,14.168h28.332v-32.111h-10.389V379.5h10.389v-5.52
		c0-9.52,7.148-18.092,15.938-18.092h11.452v14.166h-11.452c-1.252,0-2.714,1.521-2.714,3.801v5.645h14.166v14.166h-14.166v32.111
		h15.11c7.445,0,14.166-6.723,14.166-14.168V354.945z"/>
</g>
</svg>
